<mxfile host="app.diagrams.net" modified="2023-08-24T22:41:22.904Z" agent="Mozilla/5.0 (Windows NT 10.0; Win64; x64) AppleWebKit/537.36 (KHTML, like Gecko) Chrome/116.0.0.0 Safari/537.36" etag="eTyIxutFmfMxthjJVVXu" version="21.6.9" type="device">
  <diagram name="Página-1" id="CbRkFIS0AxD34-PRjqDY">
    <mxGraphModel dx="1195" dy="658" grid="1" gridSize="10" guides="1" tooltips="1" connect="1" arrows="1" fold="1" page="1" pageScale="1" pageWidth="827" pageHeight="1169" math="0" shadow="0">
      <root>
        <mxCell id="0" />
        <mxCell id="1" parent="0" />
        <mxCell id="IdJa90-ZmzTuO7CGFzeB-1" value="" style="rounded=0;whiteSpace=wrap;html=1;" vertex="1" parent="1">
          <mxGeometry x="192" y="60" width="444" height="500" as="geometry" />
        </mxCell>
        <mxCell id="IdJa90-ZmzTuO7CGFzeB-2" value="&lt;font style=&quot;font-size: 26px;&quot; face=&quot;Tahoma&quot;&gt;Sistema da biblioteca&lt;/font&gt;" style="text;html=1;strokeColor=none;fillColor=none;align=center;verticalAlign=middle;whiteSpace=wrap;rounded=0;fontSize=26;" vertex="1" parent="1">
          <mxGeometry x="204" y="20" width="420" height="30" as="geometry" />
        </mxCell>
        <mxCell id="IdJa90-ZmzTuO7CGFzeB-7" style="edgeStyle=none;rounded=0;orthogonalLoop=1;jettySize=auto;html=1;entryX=0;entryY=0.5;entryDx=0;entryDy=0;" edge="1" parent="1" source="IdJa90-ZmzTuO7CGFzeB-3" target="IdJa90-ZmzTuO7CGFzeB-5">
          <mxGeometry relative="1" as="geometry" />
        </mxCell>
        <mxCell id="IdJa90-ZmzTuO7CGFzeB-13" style="edgeStyle=none;rounded=0;orthogonalLoop=1;jettySize=auto;html=1;entryX=0;entryY=0.5;entryDx=0;entryDy=0;" edge="1" parent="1" source="IdJa90-ZmzTuO7CGFzeB-3" target="IdJa90-ZmzTuO7CGFzeB-12">
          <mxGeometry relative="1" as="geometry" />
        </mxCell>
        <mxCell id="IdJa90-ZmzTuO7CGFzeB-19" style="edgeStyle=none;rounded=0;orthogonalLoop=1;jettySize=auto;html=1;entryX=0;entryY=0.5;entryDx=0;entryDy=0;" edge="1" parent="1" source="IdJa90-ZmzTuO7CGFzeB-3" target="IdJa90-ZmzTuO7CGFzeB-18">
          <mxGeometry relative="1" as="geometry" />
        </mxCell>
        <mxCell id="IdJa90-ZmzTuO7CGFzeB-20" style="edgeStyle=none;rounded=0;orthogonalLoop=1;jettySize=auto;html=1;entryX=0;entryY=0.5;entryDx=0;entryDy=0;" edge="1" parent="1" source="IdJa90-ZmzTuO7CGFzeB-3" target="IdJa90-ZmzTuO7CGFzeB-8">
          <mxGeometry relative="1" as="geometry" />
        </mxCell>
        <mxCell id="IdJa90-ZmzTuO7CGFzeB-3" value="Leitor" style="shape=umlActor;verticalLabelPosition=bottom;verticalAlign=top;html=1;outlineConnect=0;" vertex="1" parent="1">
          <mxGeometry x="100" y="260" width="40" height="80" as="geometry" />
        </mxCell>
        <mxCell id="IdJa90-ZmzTuO7CGFzeB-9" style="edgeStyle=none;rounded=0;orthogonalLoop=1;jettySize=auto;html=1;entryX=1;entryY=0.5;entryDx=0;entryDy=0;" edge="1" parent="1" source="IdJa90-ZmzTuO7CGFzeB-4" target="IdJa90-ZmzTuO7CGFzeB-8">
          <mxGeometry relative="1" as="geometry" />
        </mxCell>
        <mxCell id="IdJa90-ZmzTuO7CGFzeB-11" style="edgeStyle=none;rounded=0;orthogonalLoop=1;jettySize=auto;html=1;entryX=1;entryY=0.5;entryDx=0;entryDy=0;" edge="1" parent="1" source="IdJa90-ZmzTuO7CGFzeB-4" target="IdJa90-ZmzTuO7CGFzeB-10">
          <mxGeometry relative="1" as="geometry" />
        </mxCell>
        <mxCell id="IdJa90-ZmzTuO7CGFzeB-15" style="edgeStyle=none;rounded=0;orthogonalLoop=1;jettySize=auto;html=1;entryX=1;entryY=0.5;entryDx=0;entryDy=0;" edge="1" parent="1" source="IdJa90-ZmzTuO7CGFzeB-4" target="IdJa90-ZmzTuO7CGFzeB-14">
          <mxGeometry relative="1" as="geometry" />
        </mxCell>
        <mxCell id="IdJa90-ZmzTuO7CGFzeB-17" style="edgeStyle=none;rounded=0;orthogonalLoop=1;jettySize=auto;html=1;entryX=1;entryY=0.5;entryDx=0;entryDy=0;" edge="1" parent="1" source="IdJa90-ZmzTuO7CGFzeB-4" target="IdJa90-ZmzTuO7CGFzeB-16">
          <mxGeometry relative="1" as="geometry" />
        </mxCell>
        <mxCell id="IdJa90-ZmzTuO7CGFzeB-21" style="edgeStyle=none;rounded=0;orthogonalLoop=1;jettySize=auto;html=1;entryX=1;entryY=0.5;entryDx=0;entryDy=0;" edge="1" parent="1" source="IdJa90-ZmzTuO7CGFzeB-4" target="IdJa90-ZmzTuO7CGFzeB-18">
          <mxGeometry relative="1" as="geometry" />
        </mxCell>
        <mxCell id="IdJa90-ZmzTuO7CGFzeB-4" value="Bibliotecário" style="shape=umlActor;verticalLabelPosition=bottom;verticalAlign=top;html=1;outlineConnect=0;" vertex="1" parent="1">
          <mxGeometry x="710" y="260" width="40" height="80" as="geometry" />
        </mxCell>
        <mxCell id="IdJa90-ZmzTuO7CGFzeB-5" value="Solicitar um livro" style="ellipse;whiteSpace=wrap;html=1;fillColor=#ffe6cc;strokeColor=#d79b00;" vertex="1" parent="1">
          <mxGeometry x="279" y="110" width="120" height="80" as="geometry" />
        </mxCell>
        <mxCell id="IdJa90-ZmzTuO7CGFzeB-8" value="Cadastrar leitor" style="ellipse;whiteSpace=wrap;html=1;fillColor=#ffe6cc;strokeColor=#d79b00;" vertex="1" parent="1">
          <mxGeometry x="354" y="460" width="120" height="80" as="geometry" />
        </mxCell>
        <mxCell id="IdJa90-ZmzTuO7CGFzeB-10" value="Buscar informações do leitor" style="ellipse;whiteSpace=wrap;html=1;fillColor=#ffe6cc;strokeColor=#d79b00;" vertex="1" parent="1">
          <mxGeometry x="429" y="70" width="120" height="80" as="geometry" />
        </mxCell>
        <mxCell id="IdJa90-ZmzTuO7CGFzeB-12" value="Devolver um livro" style="ellipse;whiteSpace=wrap;html=1;fillColor=#ffe6cc;strokeColor=#d79b00;" vertex="1" parent="1">
          <mxGeometry x="279" y="220" width="120" height="80" as="geometry" />
        </mxCell>
        <mxCell id="IdJa90-ZmzTuO7CGFzeB-14" value="Agendar data de devolução" style="ellipse;whiteSpace=wrap;html=1;fillColor=#ffe6cc;strokeColor=#d79b00;" vertex="1" parent="1">
          <mxGeometry x="429" y="170" width="120" height="80" as="geometry" />
        </mxCell>
        <mxCell id="IdJa90-ZmzTuO7CGFzeB-16" value="Emitir comprovante" style="ellipse;whiteSpace=wrap;html=1;fillColor=#ffe6cc;strokeColor=#d79b00;" vertex="1" parent="1">
          <mxGeometry x="429" y="270" width="120" height="80" as="geometry" />
        </mxCell>
        <mxCell id="IdJa90-ZmzTuO7CGFzeB-18" value="Consultar livros disponíveis" style="ellipse;whiteSpace=wrap;html=1;fillColor=#ffe6cc;strokeColor=#d79b00;" vertex="1" parent="1">
          <mxGeometry x="354" y="360" width="120" height="80" as="geometry" />
        </mxCell>
      </root>
    </mxGraphModel>
  </diagram>
</mxfile>
